<svg width="20" height="21" viewBox="0 0 20 21" fill="none" xmlns="http://www.w3.org/2000/svg">
<path d="M10 0.75C8.07164 0.75 6.18657 1.32183 4.58319 2.39317C2.97982 3.46451 1.73013 4.98726 0.992179 6.76884C0.254225 8.55042 0.061142 10.5108 0.437348 12.4021C0.813554 14.2934 1.74215 16.0307 3.10571 17.3943C4.46928 18.7579 6.20656 19.6865 8.09787 20.0627C9.98919 20.4389 11.9496 20.2458 13.7312 19.5078C15.5127 18.7699 17.0355 17.5202 18.1068 15.9168C19.1782 14.3134 19.75 12.4284 19.75 10.5C19.7473 7.91498 18.7192 5.43661 16.8913 3.60872C15.0634 1.78084 12.585 0.75273 10 0.75ZM10.75 18.7153V12.75H13C13.1989 12.75 13.3897 12.671 13.5303 12.5303C13.671 12.3897 13.75 12.1989 13.75 12C13.75 11.8011 13.671 11.6103 13.5303 11.4697C13.3897 11.329 13.1989 11.25 13 11.25H10.75V9C10.75 8.60218 10.908 8.22064 11.1893 7.93934C11.4706 7.65804 11.8522 7.5 12.25 7.5H13.75C13.9489 7.5 14.1397 7.42098 14.2803 7.28033C14.421 7.13968 14.5 6.94891 14.5 6.75C14.5 6.55109 14.421 6.36032 14.2803 6.21967C14.1397 6.07902 13.9489 6 13.75 6H12.25C11.4544 6 10.6913 6.31607 10.1287 6.87868C9.56608 7.44129 9.25 8.20435 9.25 9V11.25H7C6.80109 11.25 6.61033 11.329 6.46967 11.4697C6.32902 11.6103 6.25 11.8011 6.25 12C6.25 12.1989 6.32902 12.3897 6.46967 12.5303C6.61033 12.671 6.80109 12.75 7 12.75H9.25V18.7153C7.13575 18.5223 5.17728 17.5217 3.78198 15.9215C2.38667 14.3214 1.66195 12.2449 1.75855 10.1241C1.85515 8.00324 2.76564 6.00127 4.30064 4.5346C5.83563 3.06793 7.87696 2.24947 10 2.24947C12.1231 2.24947 14.1644 3.06793 15.6994 4.5346C17.2344 6.00127 18.1449 8.00324 18.2415 10.1241C18.3381 12.2449 17.6133 14.3214 16.218 15.9215C14.8227 17.5217 12.8643 18.5223 10.75 18.7153Z" fill="white"/>
</svg>
